<mxfile host="app.diagrams.net" modified="2023-10-15T22:48:51.987Z" agent="Mozilla/5.0 (X11; Linux x86_64; rv:109.0) Gecko/20100101 Firefox/119.0" version="22.0.4" etag="Q9d9k01c_r_53L6pInDF" type="github">
  <diagram name="Page-1" id="Y6RbI64ERRF0P6UgiLjU">
    <mxGraphModel>
      <root>
        <mxCell id="0" />
        <mxCell id="1" parent="0" />
      </root>
    </mxGraphModel>
  </diagram>
</mxfile>
